<?xml version="1.0" encoding="utf-8"?>
<!-- Generator: Adobe Illustrator 19.2.1, SVG Export Plug-In . SVG Version: 6.00 Build 0)  -->
<svg version="1.1" id="Layer_1" xmlns="http://www.w3.org/2000/svg" xmlns:xlink="http://www.w3.org/1999/xlink" x="0px" y="0px"
	 viewBox="0 0 200 150" style="enable-background:new 0 0 200 150;" xml:space="preserve">
<style type="text/css">
	.st0{opacity:0.47;fill:none;stroke:#2B3855;stroke-width:0.9033;stroke-miterlimit:10;enable-background:new    ;}
	.st1{fill:none;stroke:#2B3855;stroke-width:0.911;stroke-miterlimit:10;}
	.st2{fill:#5378BB;}
	.st3{font-family:'Tenso-Regular';}
	.st4{font-size:7px;}
	.st5{opacity:0.47;fill:none;stroke:#2B3855;stroke-width:0.9034;stroke-miterlimit:10;enable-background:new    ;}
	.st6{fill:url(#SVGID_1_);}
	.st7{fill:url(#SVGID_2_);}
	.st8{fill:url(#SVGID_3_);}
	.st9{fill:url(#SVGID_4_);}
	.st10{fill:url(#SVGID_5_);}
	.st11{fill:none;stroke:#2B3855;stroke-width:0.9075;stroke-miterlimit:10;}
</style>
<g>
	<line class="st0" x1="44.1" y1="82.4" x2="184.2" y2="82.4"/>
	<line class="st1" x1="44.5" y1="9.6" x2="44.5" y2="106.1"/>
	<text transform="matrix(1 0 0 1 23.533 84.428)" class="st2 st3 st4">Basics</text>
	<text transform="matrix(0 -1 1 0 64.3669 126.097)" class="st2 st3 st4">HTML</text>
	<text transform="matrix(0 -1 1 0 87.6889 121.6244)" class="st2 st3 st4">CSS</text>
	<text transform="matrix(0 -1 1 0 157.6564 140.1908)" class="st2 st3 st4">Illustrator</text>
	<text transform="matrix(0 -1 1 0 134.3344 140.3841)" class="st2 st3 st4">Javascript</text>
	<text transform="matrix(0 -1 1 0 111.0117 128.5238)" class="st2 st3 st4">jQuery</text>
	<text transform="matrix(1 0 0 1 13.8671 55.9591)" class="st2 st3 st4">Intermed.</text>
	<text transform="matrix(1 0 0 1 13.8665 25.9488)" class="st2 st3 st4">Advanced</text>
	<line class="st0" x1="44.1" y1="53.2" x2="184.2" y2="53.2"/>
	<line class="st5" x1="44.1" y1="23.9" x2="184.2" y2="23.9"/>
	
		<linearGradient id="SVGID_1_" gradientUnits="userSpaceOnUse" x1="64.3667" y1="118.9411" x2="64.3667" y2="44.7644" gradientTransform="matrix(1 0 0 -1 0 150.89)">
		<stop  offset="0.3596" style="stop-color:#00A14B"/>
		<stop  offset="0.8522" style="stop-color:#8DC63F"/>
	</linearGradient>
	<rect x="55.9" y="31.9" class="st6" width="17" height="74.2"/>
	
		<linearGradient id="SVGID_2_" gradientUnits="userSpaceOnUse" x1="87.1667" y1="106.2744" x2="87.1667" y2="44.7644" gradientTransform="matrix(1 0 0 -1 0 150.89)">
		<stop  offset="0.3596" style="stop-color:#00A14B"/>
		<stop  offset="0.8522" style="stop-color:#8DC63F"/>
	</linearGradient>
	<rect x="78.7" y="44.6" class="st7" width="17" height="61.5"/>
	
		<linearGradient id="SVGID_3_" gradientUnits="userSpaceOnUse" x1="110.0667" y1="91.9411" x2="110.0667" y2="44.7644" gradientTransform="matrix(1 0 0 -1 0 150.89)">
		<stop  offset="0.3596" style="stop-color:#00A14B"/>
		<stop  offset="0.8522" style="stop-color:#8DC63F"/>
	</linearGradient>
	<rect x="101.6" y="58.9" class="st8" width="17" height="47.2"/>
	
		<linearGradient id="SVGID_4_" gradientUnits="userSpaceOnUse" x1="132.9667" y1="91.2744" x2="132.9667" y2="44.7644" gradientTransform="matrix(1 0 0 -1 0 150.89)">
		<stop  offset="0.3596" style="stop-color:#00A14B"/>
		<stop  offset="0.8522" style="stop-color:#8DC63F"/>
	</linearGradient>
	<rect x="124.5" y="59.6" class="st9" width="17" height="46.5"/>
	
		<linearGradient id="SVGID_5_" gradientUnits="userSpaceOnUse" x1="155.7667" y1="91.2744" x2="155.7667" y2="44.7644" gradientTransform="matrix(1 0 0 -1 0 150.89)">
		<stop  offset="0.3596" style="stop-color:#00A14B"/>
		<stop  offset="0.8522" style="stop-color:#8DC63F"/>
	</linearGradient>
	<rect x="147.3" y="59.6" class="st10" width="17" height="46.5"/>
	<line class="st11" x1="44.5" y1="106.1" x2="186.1" y2="106.1"/>
</g>
</svg>
