<?xml version="1.0" encoding="utf-8"?>
<!-- Generator: Adobe Illustrator 19.2.1, SVG Export Plug-In . SVG Version: 6.00 Build 0)  -->
<svg version="1.1" id="Layer_1" xmlns="http://www.w3.org/2000/svg" xmlns:xlink="http://www.w3.org/1999/xlink" x="0px" y="0px"
	 viewBox="0 0 205 205" style="enable-background:new 0 0 205 205;" xml:space="preserve">
<style type="text/css">
	.st0{fill:none;stroke:#2B3855;stroke-miterlimit:10;}
	.st1{fill:#5378BB;}
	.st2{font-family:'Tenso-Regular';}
	.st3{font-size:7px;}
	.st4{opacity:0.47;fill:none;stroke:#2B3855;stroke-miterlimit:10;enable-background:new    ;}
	.st5{fill:url(#SVGID_1_);}
	.st6{fill:url(#SVGID_2_);}
	.st7{fill:url(#SVGID_3_);}
	.st8{fill:url(#SVGID_4_);}
	.st9{fill:url(#SVGID_5_);}
	.st10{fill:url(#SVGID_6_);}
	.st11{fill:url(#SVGID_7_);}
</style>
<line class="st0" x1="29.6" y1="34.1" x2="29.6" y2="150.4"/>
<text transform="matrix(1 0 0 1 1.220703e-04 117.0358)" class="st1 st2 st3">Padawan</text>
<text transform="matrix(0 -1 1 0 120.7394 171.3714)" class="st1 st2 st3">HTML</text>
<text transform="matrix(0 -1 1 0 143.6891 167.8988)" class="st1 st2 st3">CSS</text>
<text transform="matrix(0 -1 1 0 97.7897 186.6586)" class="st1 st2 st3">Illustrator</text>
<text transform="matrix(0 -1 1 0 166.6393 186.6586)" class="st1 st2 st3">Javascript</text>
<text transform="matrix(0 -1 1 0 189.589 186.6586)" class="st1 st2 st3">Photoshop</text>
<text transform="matrix(0 -1 1 0 51.8898 192.4652)" class="st1 st2 st3">Google Docs</text>
<text transform="matrix(0 -1 1 0 74.84 178.0375)" class="st1 st2 st3">Sublime</text>
<text transform="matrix(1 0 0 1 14.9991 82.0358)" class="st1 st2 st3">Jedi</text>
<text transform="matrix(1 0 0 1 5.6661 45.3688)" class="st1 st2 st3">Master</text>
<line class="st4" x1="29.6" y1="116.4" x2="201.3" y2="116.4"/>
<line class="st4" x1="29.9" y1="80.4" x2="201.6" y2="80.4"/>
<line class="st4" x1="29.2" y1="44.4" x2="200.9" y2="44.4"/>
<linearGradient id="SVGID_1_" gradientUnits="userSpaceOnUse" x1="49.5" y1="161.49" x2="49.5" y2="55.49" gradientTransform="matrix(1 0 0 -1 0 205.89)">
	<stop  offset="0" style="stop-color:#FFDD00"/>
	<stop  offset="1" style="stop-color:#FFF8A3"/>
</linearGradient>
<rect x="41" y="44.4" class="st5" width="17" height="106"/>
<linearGradient id="SVGID_2_" gradientUnits="userSpaceOnUse" x1="72.3" y1="141.39" x2="72.3" y2="55.49" gradientTransform="matrix(1 0 0 -1 0 205.89)">
	<stop  offset="0" style="stop-color:#FFDD00"/>
	<stop  offset="1" style="stop-color:#FFF8A3"/>
</linearGradient>
<rect x="63.8" y="64.5" class="st6" width="17" height="85.9"/>
<linearGradient id="SVGID_3_" gradientUnits="userSpaceOnUse" x1="95.2" y1="125.49" x2="95.2" y2="55.49" gradientTransform="matrix(1 0 0 -1 0 205.89)">
	<stop  offset="0" style="stop-color:#FFDD00"/>
	<stop  offset="1" style="stop-color:#FFF8A3"/>
</linearGradient>
<rect x="86.7" y="80.4" class="st7" width="17" height="70"/>
<linearGradient id="SVGID_4_" gradientUnits="userSpaceOnUse" x1="118.1" y1="125.49" x2="118.1" y2="55.49" gradientTransform="matrix(1 0 0 -1 0 205.89)">
	<stop  offset="0" style="stop-color:#FFDD00"/>
	<stop  offset="1" style="stop-color:#FFF8A3"/>
</linearGradient>
<rect x="109.6" y="80.4" class="st8" width="17" height="70"/>
<linearGradient id="SVGID_5_" gradientUnits="userSpaceOnUse" x1="140.9" y1="108.99" x2="140.9" y2="55.49" gradientTransform="matrix(1 0 0 -1 0 205.89)">
	<stop  offset="0" style="stop-color:#FFDD00"/>
	<stop  offset="1" style="stop-color:#FFF8A3"/>
</linearGradient>
<rect x="132.4" y="96.9" class="st9" width="17" height="53.5"/>
<linearGradient id="SVGID_6_" gradientUnits="userSpaceOnUse" x1="163.8" y1="89.49" x2="163.8" y2="55.49" gradientTransform="matrix(1 0 0 -1 0 205.89)">
	<stop  offset="0" style="stop-color:#FFDD00"/>
	<stop  offset="1" style="stop-color:#FFF8A3"/>
</linearGradient>
<rect x="155.3" y="116.4" class="st10" width="17" height="34"/>
<linearGradient id="SVGID_7_" gradientUnits="userSpaceOnUse" x1="186.6" y1="89.49" x2="186.6" y2="55.49" gradientTransform="matrix(1 0 0 -1 0 205.89)">
	<stop  offset="0" style="stop-color:#FFDD00"/>
	<stop  offset="1" style="stop-color:#FFF8A3"/>
</linearGradient>
<rect x="178.1" y="116.4" class="st11" width="17" height="34"/>
<line class="st0" x1="29.6" y1="150.4" x2="201.6" y2="150.4"/>
</svg>
